# xmcd
#
# Track frame offsets: 
#        150
#        19467
#        37437
#        56295
#        83097
#        102480
#        136197
#        162822
#        182057
#        219925
#        243992
#        260250
#        286925
#        311340
#        334690
#
# Disc length: 4777 seconds
#
# Revision: 0
# Processed by: cddbd v1.5.2PL0 Copyright (c) Steve Scherf et al.
# Submitted via: ExactAudioCopyFreeDBPlugin 1.0
#
DISCID=cd12a70f
DTITLE=Five For Fighting - Live
DYEAR=2007
DGENRE=Alt. Rock
TTITLE0=Freedom Never Cries
TTITLE1=World
TTITLE2=California Justice
TTITLE3=The Riddle
TTITLE4=65 Mustang
TTITLE5=NYC Weather Report
TTITLE6=Two Lights
TTITLE7=I Just Love You
TTITLE8=If God Made You
TTITLE9=Easy Tonight
TTITLE10=Superman
TTITLE11=100 Years
TTITLE12=Road to Heaven
TTITLE13=Nobody
TTITLE14=Policeman's Xmas Party
EXTD=
EXTT0=
EXTT1=
EXTT2=
EXTT3=
EXTT4=
EXTT5=
EXTT6=
EXTT7=
EXTT8=
EXTT9=
EXTT10=
EXTT11=
EXTT12=
EXTT13=
EXTT14=
PLAYORDER=
